<svg width="245" height="102" viewBox="0 0 245 102" fill="none" xmlns="http://www.w3.org/2000/svg">
<path d="M26.496 32.128C30 32.128 33.168 32.944 36 34.576C38.832 36.16 41.04 38.416 42.624 41.344C44.256 44.224 45.072 47.512 45.072 51.208C45.072 54.904 44.256 58.192 42.624 61.072C41.04 63.952 38.832 66.208 36 67.84C33.168 69.472 30 70.288 26.496 70.288C23.136 70.288 20.088 69.496 17.352 67.912C14.664 66.28 12.576 64.024 11.088 61.144V70H7.632V16.576H11.232V40.984C12.72 38.2 14.808 36.04 17.496 34.504C20.184 32.92 23.184 32.128 26.496 32.128ZM26.28 67.048C29.16 67.048 31.752 66.376 34.056 65.032C36.36 63.688 38.16 61.816 39.456 59.416C40.8 57.016 41.472 54.28 41.472 51.208C41.472 48.136 40.8 45.4 39.456 43C38.16 40.6 36.36 38.728 34.056 37.384C31.752 36.04 29.16 35.368 26.28 35.368C23.4 35.368 20.808 36.04 18.504 37.384C16.248 38.728 14.448 40.6 13.104 43C11.808 45.4 11.16 48.136 11.16 51.208C11.16 54.28 11.808 57.016 13.104 59.416C14.448 61.816 16.248 63.688 18.504 65.032C20.808 66.376 23.4 67.048 26.28 67.048ZM87.9699 52.072H55.6419C55.7379 55 56.4819 57.616 57.8739 59.92C59.2659 62.176 61.1379 63.928 63.4899 65.176C65.8899 66.424 68.5779 67.048 71.5539 67.048C74.0019 67.048 76.2579 66.616 78.3219 65.752C80.4339 64.84 82.1859 63.52 83.5779 61.792L85.6659 64.168C84.0339 66.136 81.9699 67.648 79.4739 68.704C77.0259 69.76 74.3619 70.288 71.4819 70.288C67.7379 70.288 64.4019 69.472 61.4739 67.84C58.5459 66.208 56.2419 63.952 54.5619 61.072C52.9299 58.192 52.1139 54.904 52.1139 51.208C52.1139 47.56 52.8819 44.296 54.4179 41.416C56.0019 38.488 58.1619 36.208 60.8979 34.576C63.6339 32.944 66.7059 32.128 70.1139 32.128C73.5219 32.128 76.5699 32.944 79.2579 34.576C81.9939 36.16 84.1299 38.392 85.6659 41.272C87.2499 44.152 88.0419 47.416 88.0419 51.064L87.9699 52.072ZM70.1139 35.296C67.4739 35.296 65.0979 35.896 62.9859 37.096C60.8739 38.248 59.1699 39.904 57.8739 42.064C56.6259 44.176 55.9059 46.576 55.7139 49.264H84.5139C84.3699 46.576 83.6499 44.176 82.3539 42.064C81.0579 39.952 79.3539 38.296 77.2419 37.096C75.1299 35.896 72.7539 35.296 70.1139 35.296ZM121.787 70.432C116.795 70.432 112.259 69.328 108.179 67.12C104.147 64.864 100.979 61.792 98.6749 57.904C96.4189 54.016 95.2909 49.648 95.2909 44.8C95.2909 39.952 96.4189 35.584 98.6749 31.696C100.979 27.808 104.147 24.76 108.179 22.552C112.259 20.296 116.795 19.168 121.787 19.168C126.779 19.168 131.267 20.272 135.251 22.48C139.283 24.688 142.451 27.76 144.755 31.696C147.059 35.584 148.211 39.952 148.211 44.8C148.211 49.648 147.059 54.04 144.755 57.976C142.451 61.864 139.283 64.912 135.251 67.12C131.267 69.328 126.779 70.432 121.787 70.432ZM121.787 65.68C125.771 65.68 129.371 64.792 132.587 63.016C135.803 61.192 138.323 58.696 140.147 55.528C141.971 52.312 142.883 48.736 142.883 44.8C142.883 40.864 141.971 37.312 140.147 34.144C138.323 30.928 135.803 28.432 132.587 26.656C129.371 24.832 125.771 23.92 121.787 23.92C117.803 23.92 114.179 24.832 110.915 26.656C107.699 28.432 105.155 30.928 103.283 34.144C101.459 37.312 100.547 40.864 100.547 44.8C100.547 48.736 101.459 52.312 103.283 55.528C105.155 58.696 107.699 61.192 110.915 63.016C114.179 64.792 117.803 65.68 121.787 65.68ZM178.369 31.84C183.121 31.84 186.889 33.232 189.673 36.016C192.505 38.752 193.921 42.76 193.921 48.04V70H188.809V48.544C188.809 44.608 187.825 41.608 185.857 39.544C183.889 37.48 181.081 36.448 177.433 36.448C173.353 36.448 170.113 37.672 167.713 40.12C165.361 42.52 164.185 45.856 164.185 50.128V70H159.073V32.128H163.969V39.112C165.361 36.808 167.281 35.032 169.729 33.784C172.225 32.488 175.105 31.84 178.369 31.84ZM240.917 52.648H209.237C209.525 56.584 211.037 59.776 213.773 62.224C216.509 64.624 219.965 65.824 224.141 65.824C226.493 65.824 228.653 65.416 230.621 64.6C232.589 63.736 234.293 62.488 235.733 60.856L238.613 64.168C236.933 66.184 234.821 67.72 232.277 68.776C229.781 69.832 227.021 70.36 223.997 70.36C220.109 70.36 216.653 69.544 213.629 67.912C210.653 66.232 208.325 63.928 206.645 61C204.965 58.072 204.125 54.76 204.125 51.064C204.125 47.368 204.917 44.056 206.501 41.128C208.133 38.2 210.341 35.92 213.125 34.288C215.957 32.656 219.125 31.84 222.629 31.84C226.133 31.84 229.277 32.656 232.061 34.288C234.845 35.92 237.029 38.2 238.613 41.128C240.197 44.008 240.989 47.32 240.989 51.064L240.917 52.648ZM222.629 36.232C218.981 36.232 215.909 37.408 213.413 39.76C210.965 42.064 209.573 45.088 209.237 48.832H236.093C235.757 45.088 234.341 42.064 231.845 39.76C229.397 37.408 226.325 36.232 222.629 36.232Z" fill="white"/>
<path d="M36.536 96.12C35.32 96.12 34.224 95.848 33.248 95.304C32.272 94.744 31.504 93.976 30.944 93C30.384 92.024 30.104 90.92 30.104 89.688C30.104 88.456 30.384 87.352 30.944 86.376C31.504 85.4 32.272 84.64 33.248 84.096C34.224 83.552 35.32 83.28 36.536 83.28C37.752 83.28 38.848 83.552 39.824 84.096C40.8 84.64 41.56 85.4 42.104 86.376C42.664 87.352 42.944 88.456 42.944 89.688C42.944 90.92 42.664 92.024 42.104 93C41.56 93.976 40.8 94.744 39.824 95.304C38.848 95.848 37.752 96.12 36.536 96.12ZM36.536 94.608C37.432 94.608 38.232 94.408 38.936 94.008C39.656 93.592 40.216 93.008 40.616 92.256C41.016 91.504 41.216 90.648 41.216 89.688C41.216 88.728 41.016 87.872 40.616 87.12C40.216 86.368 39.656 85.792 38.936 85.392C38.232 84.976 37.432 84.768 36.536 84.768C35.64 84.768 34.832 84.976 34.112 85.392C33.408 85.792 32.848 86.368 32.432 87.12C32.032 87.872 31.832 88.728 31.832 89.688C31.832 90.648 32.032 91.504 32.432 92.256C32.848 93.008 33.408 93.592 34.112 94.008C34.832 94.408 35.64 94.608 36.536 94.608ZM52.8549 83.28C54.4389 83.28 55.6949 83.744 56.6229 84.672C57.5669 85.584 58.0389 86.92 58.0389 88.68V96H56.3349V88.848C56.3349 87.536 56.0069 86.536 55.3509 85.848C54.6949 85.16 53.7589 84.816 52.5429 84.816C51.1829 84.816 50.1029 85.224 49.3029 86.04C48.5189 86.84 48.1269 87.952 48.1269 89.376V96H46.4229V83.376H48.0549V85.704C48.5189 84.936 49.1589 84.344 49.9749 83.928C50.8069 83.496 51.7669 83.28 52.8549 83.28ZM73.7039 90.216H63.1439C63.2399 91.528 63.7439 92.592 64.6559 93.408C65.5679 94.208 66.7199 94.608 68.1119 94.608C68.8959 94.608 69.6159 94.472 70.2719 94.2C70.9279 93.912 71.4959 93.496 71.9759 92.952L72.9359 94.056C72.3759 94.728 71.6719 95.24 70.8239 95.592C69.9919 95.944 69.0719 96.12 68.0639 96.12C66.7679 96.12 65.6159 95.848 64.6079 95.304C63.6159 94.744 62.8399 93.976 62.2799 93C61.7199 92.024 61.4399 90.92 61.4399 89.688C61.4399 88.456 61.7039 87.352 62.2319 86.376C62.7759 85.4 63.5119 84.64 64.4399 84.096C65.3839 83.552 66.4399 83.28 67.6079 83.28C68.7759 83.28 69.8239 83.552 70.7519 84.096C71.6799 84.64 72.4079 85.4 72.9359 86.376C73.4639 87.336 73.7279 88.44 73.7279 89.688L73.7039 90.216ZM67.6079 84.744C66.3919 84.744 65.3679 85.136 64.5359 85.92C63.7199 86.688 63.2559 87.696 63.1439 88.944H72.0959C71.9839 87.696 71.5119 86.688 70.6799 85.92C69.8639 85.136 68.8399 84.744 67.6079 84.744ZM86.8616 96.12C85.8376 96.12 84.8536 95.976 83.9096 95.688C82.9816 95.384 82.2536 95.008 81.7256 94.56L82.4936 93.216C83.0216 93.632 83.6856 93.976 84.4856 94.248C85.2856 94.504 86.1176 94.632 86.9816 94.632C88.1336 94.632 88.9816 94.456 89.5256 94.104C90.0856 93.736 90.3656 93.224 90.3656 92.568C90.3656 92.104 90.2136 91.744 89.9096 91.488C89.6056 91.216 89.2216 91.016 88.7576 90.888C88.2936 90.744 87.6776 90.608 86.9096 90.48C85.8856 90.288 85.0616 90.096 84.4376 89.904C83.8136 89.696 83.2776 89.352 82.8296 88.872C82.3976 88.392 82.1816 87.728 82.1816 86.88C82.1816 85.824 82.6216 84.96 83.5016 84.288C84.3816 83.616 85.6056 83.28 87.1736 83.28C87.9896 83.28 88.8056 83.392 89.6216 83.616C90.4376 83.824 91.1096 84.104 91.6376 84.456L90.8936 85.824C89.8536 85.104 88.6136 84.744 87.1736 84.744C86.0856 84.744 85.2616 84.936 84.7016 85.32C84.1576 85.704 83.8856 86.208 83.8856 86.832C83.8856 87.312 84.0376 87.696 84.3416 87.984C84.6616 88.272 85.0536 88.488 85.5176 88.632C85.9816 88.76 86.6216 88.896 87.4376 89.04C88.4456 89.232 89.2536 89.424 89.8616 89.616C90.4696 89.808 90.9896 90.136 91.4216 90.6C91.8536 91.064 92.0696 91.704 92.0696 92.52C92.0696 93.624 91.6056 94.504 90.6776 95.16C89.7656 95.8 88.4936 96.12 86.8616 96.12ZM101.868 95.232C101.548 95.52 101.148 95.744 100.668 95.904C100.204 96.048 99.7158 96.12 99.2038 96.12C98.0198 96.12 97.1078 95.8 96.4678 95.16C95.8278 94.52 95.5078 93.616 95.5078 92.448V84.816H93.2518V83.376H95.5078V80.616H97.2118V83.376H101.052V84.816H97.2118V92.352C97.2118 93.104 97.3958 93.68 97.7638 94.08C98.1478 94.464 98.6918 94.656 99.3958 94.656C99.7478 94.656 100.084 94.6 100.404 94.488C100.74 94.376 101.028 94.216 101.268 94.008L101.868 95.232ZM115.516 90.216H104.956C105.052 91.528 105.556 92.592 106.468 93.408C107.38 94.208 108.532 94.608 109.924 94.608C110.708 94.608 111.428 94.472 112.084 94.2C112.74 93.912 113.308 93.496 113.788 92.952L114.748 94.056C114.188 94.728 113.484 95.24 112.636 95.592C111.804 95.944 110.884 96.12 109.876 96.12C108.58 96.12 107.428 95.848 106.42 95.304C105.428 94.744 104.652 93.976 104.092 93C103.532 92.024 103.252 90.92 103.252 89.688C103.252 88.456 103.516 87.352 104.044 86.376C104.588 85.4 105.324 84.64 106.252 84.096C107.196 83.552 108.252 83.28 109.42 83.28C110.588 83.28 111.636 83.552 112.564 84.096C113.492 84.64 114.22 85.4 114.748 86.376C115.276 87.336 115.54 88.44 115.54 89.688L115.516 90.216ZM109.42 84.744C108.204 84.744 107.18 85.136 106.348 85.92C105.532 86.688 105.068 87.696 104.956 88.944H113.908C113.796 87.696 113.324 86.688 112.492 85.92C111.676 85.136 110.652 84.744 109.42 84.744ZM125.513 83.28C126.697 83.28 127.769 83.552 128.729 84.096C129.689 84.624 130.441 85.376 130.985 86.352C131.529 87.328 131.801 88.44 131.801 89.688C131.801 90.952 131.529 92.072 130.985 93.048C130.441 94.024 129.689 94.784 128.729 95.328C127.785 95.856 126.713 96.12 125.513 96.12C124.489 96.12 123.561 95.912 122.729 95.496C121.913 95.064 121.241 94.44 120.713 93.624V100.656H119.009V83.376H120.641V85.872C121.153 85.04 121.825 84.4 122.657 83.952C123.505 83.504 124.457 83.28 125.513 83.28ZM125.393 94.608C126.273 94.608 127.073 94.408 127.793 94.008C128.513 93.592 129.073 93.008 129.473 92.256C129.889 91.504 130.097 90.648 130.097 89.688C130.097 88.728 129.889 87.88 129.473 87.144C129.073 86.392 128.513 85.808 127.793 85.392C127.073 84.976 126.273 84.768 125.393 84.768C124.497 84.768 123.689 84.976 122.969 85.392C122.265 85.808 121.705 86.392 121.289 87.144C120.889 87.88 120.689 88.728 120.689 89.688C120.689 90.648 120.889 91.504 121.289 92.256C121.705 93.008 122.265 93.592 122.969 94.008C123.689 94.408 124.497 94.608 125.393 94.608ZM145.972 83.28C147.62 83.28 148.884 83.696 149.764 84.528C150.644 85.344 151.084 86.56 151.084 88.176V96H149.452V94.032C149.068 94.688 148.5 95.2 147.748 95.568C147.012 95.936 146.132 96.12 145.108 96.12C143.7 96.12 142.58 95.784 141.748 95.112C140.916 94.44 140.5 93.552 140.5 92.448C140.5 91.376 140.884 90.512 141.652 89.856C142.436 89.2 143.676 88.872 145.372 88.872H149.38V88.104C149.38 87.016 149.076 86.192 148.468 85.632C147.86 85.056 146.972 84.768 145.804 84.768C145.004 84.768 144.236 84.904 143.5 85.176C142.764 85.432 142.132 85.792 141.604 86.256L140.836 84.984C141.476 84.44 142.244 84.024 143.14 83.736C144.036 83.432 144.98 83.28 145.972 83.28ZM145.372 94.776C146.332 94.776 147.156 94.56 147.844 94.128C148.532 93.68 149.044 93.04 149.38 92.208V90.144H145.42C143.26 90.144 142.18 90.896 142.18 92.4C142.18 93.136 142.46 93.72 143.02 94.152C143.58 94.568 144.364 94.776 145.372 94.776ZM162.144 83.28C163.728 83.28 164.984 83.744 165.912 84.672C166.856 85.584 167.328 86.92 167.328 88.68V96H165.624V88.848C165.624 87.536 165.296 86.536 164.64 85.848C163.984 85.16 163.048 84.816 161.832 84.816C160.472 84.816 159.392 85.224 158.592 86.04C157.808 86.84 157.416 87.952 157.416 89.376V96H155.712V78.192H157.416V85.584C157.88 84.848 158.52 84.28 159.336 83.88C160.152 83.48 161.088 83.28 162.144 83.28ZM182.993 90.216H172.433C172.529 91.528 173.033 92.592 173.945 93.408C174.857 94.208 176.009 94.608 177.401 94.608C178.185 94.608 178.905 94.472 179.561 94.2C180.217 93.912 180.785 93.496 181.265 92.952L182.225 94.056C181.665 94.728 180.961 95.24 180.113 95.592C179.281 95.944 178.361 96.12 177.353 96.12C176.057 96.12 174.905 95.848 173.897 95.304C172.905 94.744 172.129 93.976 171.569 93C171.009 92.024 170.729 90.92 170.729 89.688C170.729 88.456 170.993 87.352 171.521 86.376C172.065 85.4 172.801 84.64 173.729 84.096C174.673 83.552 175.729 83.28 176.897 83.28C178.065 83.28 179.113 83.552 180.041 84.096C180.969 84.64 181.697 85.4 182.225 86.376C182.753 87.336 183.017 88.44 183.017 89.688L182.993 90.216ZM176.897 84.744C175.681 84.744 174.657 85.136 173.825 85.92C173.009 86.688 172.545 87.696 172.433 88.944H181.385C181.273 87.696 180.801 86.688 179.969 85.92C179.153 85.136 178.129 84.744 176.897 84.744ZM190.55 83.28C192.198 83.28 193.462 83.696 194.342 84.528C195.222 85.344 195.662 86.56 195.662 88.176V96H194.03V94.032C193.646 94.688 193.078 95.2 192.326 95.568C191.59 95.936 190.71 96.12 189.686 96.12C188.278 96.12 187.158 95.784 186.326 95.112C185.494 94.44 185.078 93.552 185.078 92.448C185.078 91.376 185.462 90.512 186.23 89.856C187.014 89.2 188.254 88.872 189.95 88.872H193.958V88.104C193.958 87.016 193.654 86.192 193.046 85.632C192.438 85.056 191.55 84.768 190.382 84.768C189.582 84.768 188.814 84.904 188.078 85.176C187.342 85.432 186.71 85.792 186.182 86.256L185.414 84.984C186.054 84.44 186.822 84.024 187.718 83.736C188.614 83.432 189.558 83.28 190.55 83.28ZM189.95 94.776C190.91 94.776 191.734 94.56 192.422 94.128C193.11 93.68 193.622 93.04 193.958 92.208V90.144H189.998C187.838 90.144 186.758 90.896 186.758 92.4C186.758 93.136 187.038 93.72 187.598 94.152C188.158 94.568 188.942 94.776 189.95 94.776ZM211.857 78.192V96H210.225V93.504C209.713 94.352 209.033 95 208.185 95.448C207.353 95.896 206.409 96.12 205.353 96.12C204.169 96.12 203.097 95.848 202.137 95.304C201.177 94.76 200.425 94 199.881 93.024C199.337 92.048 199.065 90.936 199.065 89.688C199.065 88.44 199.337 87.328 199.881 86.352C200.425 85.376 201.177 84.624 202.137 84.096C203.097 83.552 204.169 83.28 205.353 83.28C206.377 83.28 207.297 83.496 208.113 83.928C208.945 84.344 209.625 84.96 210.153 85.776V78.192H211.857ZM205.497 94.608C206.377 94.608 207.169 94.408 207.873 94.008C208.593 93.592 209.153 93.008 209.553 92.256C209.969 91.504 210.177 90.648 210.177 89.688C210.177 88.728 209.969 87.872 209.553 87.12C209.153 86.368 208.593 85.792 207.873 85.392C207.169 84.976 206.377 84.768 205.497 84.768C204.601 84.768 203.793 84.976 203.073 85.392C202.369 85.792 201.809 86.368 201.393 87.12C200.993 87.872 200.793 88.728 200.793 89.688C200.793 90.648 200.993 91.504 201.393 92.256C201.809 93.008 202.369 93.592 203.073 94.008C203.793 94.408 204.601 94.608 205.497 94.608Z" fill="white"/>
</svg>
